<svg xmlns="http://www.w3.org/2000/svg" xmlns:xlink="http://www.w3.org/1999/xlink" width="51" height="80" viewBox="0 0 51 80"><defs><path id="j8v5a" d="M180.99 502.07a22.91 22.91 0 0 1-45.82 0v-20.52a4.12 4.12 0 1 1 8.25 0v12.05c0 .1 0 .32.11.43 0 0 0 .11.1.11 0 .1.12.22.12.22l.1.1c.11.11.22.11.22.22 0 0 .11 0 .22.11h.1a47.43 47.43 0 0 1 19.44 8.9c.55.44 1.3.33 1.74-.21.43-.55.32-1.3-.22-1.74a48.5 48.5 0 0 0-19.43-9.12v-4.02a45.65 45.65 0 0 1 26.38 2.93c.1.11.33.11.43.11.44 0 .87-.32 1.09-.76.1-.1.1-.32.1-.54v-20.95a3.43 3.43 0 0 1 3.48-3.48 3.43 3.43 0 0 1 3.48 3.48l.1 32.68zm-35.07-44.73a3.43 3.43 0 0 1 3.47-3.48 3.43 3.43 0 0 1 3.48 3.48v28.11c-2.4.11-4.67.33-6.95.66zm9.34-3.59a3.43 3.43 0 0 1 3.47-3.47 3.43 3.43 0 0 1 3.47 3.47v32.36a75.14 75.14 0 0 0-6.94-.66zm12.91 1.3a3.43 3.43 0 0 1 3.48 3.48v30.07a51.1 51.1 0 0 0-6.95-2.06v-28a3.5 3.5 0 0 1 3.47-3.48zm9.34 8.47c-1.3 0-2.5.44-3.47 1.2v-6.08a5.84 5.84 0 0 0-9.34-4.67v-.1c0-3.26-2.6-5.87-5.86-5.87a5.75 5.75 0 0 0-5.76 4.89 6.02 6.02 0 0 0-3.58-1.3 5.84 5.84 0 0 0-5.86 5.86v19.1a6.24 6.24 0 0 0-4.13-1.52 6.53 6.53 0 0 0-6.51 6.52v20.52c0 14 11.4 25.4 25.4 25.4 14 0 25.4-11.4 25.4-25.4V469.5a6.46 6.46 0 0 0-6.29-5.98z"/></defs><g><g transform="translate(-133 -448)"><use fill="#dbdbdb" xlink:href="#j8v5a"/></g></g></svg>