<svg xmlns="http://www.w3.org/2000/svg" xmlns:xlink="http://www.w3.org/1999/xlink" width="184" height="185" viewBox="0 0 184 185"><defs><path id="ah22a" d="M196.12 227.01c-.2 5.53-5.11 5.94-6.14 5.94-1.02 0-6.14-.4-6.14-6.14V208.39c.41-5.12 5.12-5.53 6.14-5.53 6.14 0 6.14 5.53 6.14 6.14zm-16.98-17.8v14.12c-.41 5.12-5.12 5.32-6.14 5.53-1.03 0-5.94-.41-6.14-5.73v-32.14c.4-5.11 5.11-5.32 6.14-5.32 1.02 0 6.14.41 6.14 6.14v17.4zm-17.2-17.2v25.18a12.42 12.42 0 0 0-6.14-1.84h-6.14v-31.93c0-5.94 5.12-6.14 6.14-6.14.62 0 6.14.2 6.14 6.14v8.6zm-16.98 23.13h-6.14s-2.87 0-6.14 1.03V191.8c0-5.93 5.11-6.14 6.14-6.14 1.02 0 6.14.41 6.14 6.14zm45.02-16.98c-.2 0-2.86 0-5.32 1.22-.2.2-.61.41-.82.41v-7.98c0-7.98-6.55-10.85-10.84-10.85-.2 0-2.87 0-5.32 1.23-.2.2-.62.41-.82.41-.41-7.57-6.55-10.44-10.85-10.44-.2 0-2.87 0-5.32 1.23-3.69 2.05-5.53 5.32-5.73 9.42a12.54 12.54 0 0 0-6.35-1.85c-.2 0-2.86 0-5.32 1.23-3.68 1.84-5.53 5.32-5.53 9.62v26.4c-4.5 2.66-8.6 7.37-8.6 16.38v8.6c0 6.34 3.7 18.2 17.2 19.44v51.57h4.7v-56.28H135.76c-.2 0-.41 0-.62-.2h-.4c-.21 0-.42-.2-.62-.2h-.41c-.2 0-.41-.21-.61-.21 0 0-.2 0-.2-.2-.21 0-.42-.21-.62-.21h-.2c-.21-.2-.42-.2-.62-.41h-.2c-.21-.2-.42-.2-.62-.41h-.2c-.21-.2-.41-.2-.62-.41-5.12-3.89-5.53-10.85-5.53-11.87v-10.03-.41c0-.41 0-.82.2-1.43 0-.41.21-.82.21-1.23v-.2c.2-.42.2-.82.41-1.23l.62-1.23v-.2c.4-.83.82-1.44 1.43-2.05l.2-.2a12.66 12.66 0 0 1 4.1-3.08c3.68-1.84 7.57-2.05 7.57-2.05h16.99c1.02 0 6.14.41 6.14 6.15 0 1.84-.41 3.27-1.43 4.3-1.85 1.84-4.71 1.84-4.71 1.84h-19.44v4.7h19.64c.41 0 4.92 0 7.99-3.07a8.1 8.1 0 0 0 2.04-3.07 12.6 12.6 0 0 0 7.17 2.46c.2 0 2.86 0 5.32-1.23.61-.2 1.02-.61 1.63-1.02 1.85 4.7 6.76 6.55 10.24 6.55.2 0 2.86 0 5.32-1.23.2-.2.61-.41.82-.41v15.96c0 1.03-.41 6.14-6.14 6.14h-2.46v56.08h4.1v-52.19a9.68 9.68 0 0 0 7.16-5.32c1.23-2.66 1.23-5.12 1.23-5.32v-42.77c.2-7.99-6.35-10.85-10.65-10.85z"/><path id="ah22b" d="M217.26 167.9l-3.33-3.33 17.08-17.07 3.33 3.33z"/><path id="ah22c" d="M230.3 219.85v-4.7H252v4.7z"/><path id="ah22d" d="M153.35 151.9V130h4.7v21.9z"/><path id="ah22e" d="M102.75 167.85l-17.07-17.07 3.32-3.33 17.08 17.08z"/><path id="ah22f" d="M230.98 287.8l-17.08-17.07 3.33-3.33 17.08 17.07z"/><path id="ah22g" d="M88.92 287.77l-3.33-3.33 17.08-17.08 3.32 3.33z"/><path id="ah22h" d="M68 219.85v-4.7h21.7v4.7z"/></defs><g><g transform="translate(-68 -130)"><g><use fill="#dbdbdb" xlink:href="#ah22a"/></g><g><use fill="#dbdbdb" xlink:href="#ah22b"/></g><g><use fill="#dbdbdb" xlink:href="#ah22c"/></g><g><use fill="#dbdbdb" xlink:href="#ah22d"/></g><g><use fill="#dbdbdb" xlink:href="#ah22e"/></g><g><use fill="#dbdbdb" xlink:href="#ah22f"/></g><g><use fill="#dbdbdb" xlink:href="#ah22g"/></g><g><use fill="#dbdbdb" xlink:href="#ah22h"/></g></g></g></svg>