<svg xmlns="http://www.w3.org/2000/svg" xmlns:xlink="http://www.w3.org/1999/xlink" width="50" height="80" viewBox="0 0 50 80"><defs><path id="2rnza" d="M276.2 502.17a23.26 23.26 0 0 1-23.23 23.24 23.26 23.26 0 0 1-23.23-23.24v-20.73a4.32 4.32 0 0 1 4.23-4.23 4.32 4.32 0 0 1 4.23 4.23v12.27c0 .1 0 .32.11.43 0 0 0 .1.11.1 0 .12.11.23.11.23l.1.1c.12.11.12.11.23.11.1 0 .1 0 .21.11h.11a47.74 47.74 0 0 1 19.65 9.01c.11.11.22.11.44.22h.54c.1 0 .22-.1.43-.1h.11l.33-.34c.43-.54.32-1.3-.22-1.73a49.59 49.59 0 0 0-19.65-9.23v-4.13l2.06-.32h.22c.65-.11 1.3-.11 1.85-.22h.65c.43 0 .97-.1 1.4-.1h4.24c.44 0 .98.1 1.41.1h.66c.65 0 1.3.11 1.84.22h.22l2.06.32v1.52a6.02 6.02 0 0 0 5.97 5.98c1.74 0 3.26-.76 4.34-1.85a5.81 5.81 0 0 0 5.22 3.04c1.3 0 2.5-.43 3.58-1.2v6.2zm-40.6-47.11a3.56 3.56 0 0 1 3.26-2.17c1.4 0 2.71.86 3.25 2.17a3 3 0 0 1 .33 1.4l5.21 29c-2.39.1-4.78.32-7.06.65v-4.67l-5.32-24.97a3 3 0 0 1 .33-1.41zm15.2-3.8a3.54 3.54 0 0 1 2.82-1.52c1.41 0 2.72.87 3.26 2.17a3 3 0 0 1 .32 1.41v32.79a42.02 42.02 0 0 0-5.32-.55c-.54 0-1.19-.1-1.73-.1v-32.14c0-.54.1-1.09.43-1.63 0-.1.11-.22.22-.43zm8.8 24.1a3.61 3.61 0 0 1 3.57-3.58 3.61 3.61 0 0 1 3.59 3.58v14.87a3.5 3.5 0 0 1-3.48 3.48 3.61 3.61 0 0 1-3.58-3.59v-14.76zm10.52 4.78a3.9 3.9 0 0 1 1.09-.76 3 3 0 0 1 1.41-.33 3.61 3.61 0 0 1 3.58 3.58v8.69a3.61 3.61 0 0 1-3.58 3.58c-.22 0-.43 0-.76-.1-.65-.12-1.3-.44-1.74-.99-.1-.1-.32-.32-.43-.54a3.03 3.03 0 0 1-.65-1.95v-8.58c.1-1.09.54-1.95 1.08-2.6zm7.82 11.18v-8.69a5.33 5.33 0 0 0-9.55-3.25v-4.13a5.33 5.33 0 0 0-9.56-3.26v-18.67a5.33 5.33 0 0 0-10.64 0v25.95l-4.23-22.91a5.33 5.33 0 0 0-10.64.22v.32l4.56 19.98a6.02 6.02 0 0 0-9.88 4.56v20.73a24.97 24.97 0 0 0 24.97 24.97c6.62 0 12.92-2.6 17.7-7.27a24.61 24.61 0 0 0 7.27-17.7v-10.85"/></defs><g><g transform="translate(-228 -448)"><use fill="#dbdbdb" xlink:href="#2rnza"/></g></g></svg>